<svg width="39" height="39" viewBox="0 0 39 39" fill="none" xmlns="http://www.w3.org/2000/svg">
<circle cx="19.5" cy="19.5" r="19.5" fill="url(#paint0_linear_147_4931)"/>
<path fill-rule="evenodd" clip-rule="evenodd" d="M14.2369 12.7173H10.1741V14.4129H12.9024L15.2509 25.1617H15.261V25.4347H26.2828V25.2244L28.142 17.0336L28.4286 16.1086H14.9685L14.4853 13.8949L14.2369 12.7173ZM26.2717 17.8042H15.339L16.6354 23.739H24.9246L26.2717 17.8042Z" fill="white"/>
<path d="M17.8045 29.6738C18.2543 29.6738 18.6855 29.4951 19.0035 29.1771C19.3215 28.8591 19.5002 28.4278 19.5002 27.9781C19.5002 27.5284 19.3215 27.0971 19.0035 26.7791C18.6855 26.4611 18.2543 26.2825 17.8045 26.2825C17.3548 26.2825 16.9235 26.4611 16.6055 26.7791C16.2875 27.0971 16.1089 27.5284 16.1089 27.9781C16.1089 28.4278 16.2875 28.8591 16.6055 29.1771C16.9235 29.4951 17.3548 29.6738 17.8045 29.6738Z" fill="white"/>
<path d="M25.435 27.9781C25.435 28.4278 25.2564 28.8591 24.9384 29.1771C24.6204 29.4951 24.1891 29.6738 23.7394 29.6738C23.2896 29.6738 22.8583 29.4951 22.5403 29.1771C22.2224 28.8591 22.0437 28.4278 22.0437 27.9781C22.0437 27.5284 22.2224 27.0971 22.5403 26.7791C22.8583 26.4611 23.2896 26.2825 23.7394 26.2825C24.1891 26.2825 24.6204 26.4611 24.9384 26.7791C25.2564 27.0971 25.435 27.5284 25.435 27.9781Z" fill="white"/>
<defs>
<linearGradient id="paint0_linear_147_4931" x1="0" y1="0" x2="47.0771" y2="19.4553" gradientUnits="userSpaceOnUse">
<stop stop-color="#1F5DA5"/>
<stop offset="1" stop-color="#184282"/>
</linearGradient>
</defs>
</svg>
